<?xml version="1.0" encoding="utf-8"?>
<svg width="60" height="60" viewBox="0 0 60 60" fill="none" xmlns="http://www.w3.org/2000/svg">
  <path style="fill: rgb(216, 216, 216); stroke: rgb(0, 0, 0);" d="M 23.296 23.296 C 23.296 22.357 23.499 21.601 23.499 20.655 C 23.499 19.351 22.393 19.333 21.332 19.097 C 21.153 19.057 20.313 18.558 20.045 18.826 C 19.603 19.268 19.571 20.668 19.571 21.332 C 19.571 23.002 19.571 24.673 19.571 26.343 C 19.571 27.44 19.562 28.404 20.451 28.849 C 22.378 29.812 25.139 28.282 26.546 27.156 C 27.072 26.735 27.802 26.362 28.172 25.869 C 28.841 24.976 29.238 24.074 29.729 23.093 C 30.112 22.327 31.692 20.315 31.219 19.368 C 31.085 19.1 30.657 19.104 30.406 19.029 C 29.935 18.888 28.811 18.49 28.307 18.826 C 27.83 19.144 27.605 19.935 27.223 20.316 C 26.759 20.78 26.038 21.581 25.598 21.874 C 25.099 22.206 24.74 22.574 24.244 22.822 C 24.139 22.874 23.425 23.425 23.431 23.431 C 23.559 23.559 23.792 23.431 23.973 23.431"/>
</svg>